# xmcd
#
# Track frame offsets: 
#        150
#        24183
#        37679
#        58288
#        69755
#        90065
#        110088
#        124489
#        136886
#        154224
#        187237
#        207200
#        222183
#        236462
#
# Disc length: 3411 seconds
#
# Revision: 1
# Processed by: cddbd v1.5.2PL0 Copyright (c) Steve Scherf et al.
# Submitted via: ExactAudioCopy v1.3
#
DISCID=bc0d510e
DTITLE=Various Artist - Soulbag Sampler, Jun 2007
DYEAR=2007
DGENRE=Blues
TTITLE0=Billy Jones - My hometown
TTITLE1=Mighty Mo Rodgers - Blues ain't devil music
TTITLE2=Fruteland Jackson - Blues over Baghdad
TTITLE3=Big John Hamilton - Big bad John (They call me)
TTITLE4=Koko Taylor - Piece of man
TTITLE5=Fillmore Slim - Hey little brother
TTITLE6=Rosebud Blue Sauce - Lost in the game
TTITLE7=Marie Knight - You got to move
TTITLE8=Les Marvellous Pig Noise - Cherche mon âme
TTITLE9=Carey and Lurrie Bell - Gettin' up
TTITLE10=Tad Robinson - He's movin' in (To her life)
TTITLE11=Dennis Binder - Terrorist on the loose
TTITLE12=Steve Verbeke and Le Roots Trio - Parano
TTITLE13=Mel Waiters - How do you do it
EXTD=supplément à Soul Bag N°187, juin 2007
EXTT0=
EXTT1=
EXTT2=
EXTT3=
EXTT4=
EXTT5=
EXTT6=
EXTT7=
EXTT8=
EXTT9=
EXTT10=
EXTT11=
EXTT12=
EXTT13=
PLAYORDER=
